<svg width="66" height="66" viewBox="0 0 66 66" fill="none" xmlns="http://www.w3.org/2000/svg">
<rect width="65.387" height="65.387" rx="16" fill="#36DA76"/>
<path d="M41.1613 45.4382C41.1064 44.2648 41.0337 43.0976 40.9755 41.933C40.7874 38.2898 40.8028 34.5932 40.6059 30.932C40.409 27.2982 40.5258 23.662 40.4219 20.0283C40.401 19.2732 40.4348 17.7817 39.6533 17.3512C37.9724 16.4264 36.9744 18.949 36.5468 19.976C35.7759 21.8401 35.3305 23.8007 34.7798 25.732C34.3105 27.3851 33.7761 29.0328 33.5949 30.7444C33.4608 32.0287 33.4731 33.4664 34.144 34.6236C34.4809 35.2052 35.0635 35.601 35.7268 35.7683C36.4152 35.9445 37.2023 35.7139 37.8556 36.0248C38.024 36.1061 38.1723 36.2752 38.2399 36.4459C38.4516 36.9962 38.2513 37.831 38.1852 38.3987C37.9755 40.2274 37.7537 42.0743 37.6545 43.9118C37.5958 45.023 37.5308 46.4462 38.2031 47.4144C38.6151 48.0023 39.4502 48.5513 40.2036 48.2591C41.3298 47.8281 41.2081 46.372 41.1613 45.4382Z" fill="white"/>
<path d="M26.8347 18.1624C26.5111 18.2921 26.6338 19.4492 26.6194 19.8047C26.5981 20.4434 26.6417 21.2886 26.5648 22.1163C26.5644 22.1237 26.5633 22.1289 26.5622 22.134C26.5555 22.1915 26.5501 22.2536 26.5407 22.3191C26.5306 22.3824 26.5198 22.4434 26.5121 22.506C26.4431 22.9096 26.3118 23.3875 26.0635 23.6167C25.7817 23.8787 25.1501 23.8236 24.9308 23.514C24.572 23.0099 24.5989 21.8845 24.5771 21.8513C24.5625 21.3189 24.4849 19.7086 24.3686 18.6469C24.3589 18.5669 24.3435 18.0857 23.9041 18.0343C23.6992 18.012 23.4836 18.1866 23.4137 18.5055C23.2074 19.4468 23.0141 21.2411 23.002 21.5233C22.9995 21.5506 22.9983 21.5825 22.9982 21.6092C22.9982 21.6092 22.9971 21.6143 22.9977 21.6166C22.9964 21.6751 22.9266 23.0809 22.5708 23.5659C22.3849 23.8202 21.9022 24.0201 21.4225 23.7511C21.2314 23.6428 21.1005 23.434 21.0082 23.2104C20.5066 21.649 20.9569 19.929 21.021 19.1094C21.0399 18.8789 21.2487 18.1092 20.783 18.1349C20.0817 18.173 19.1762 21.1607 19.0142 21.8455C18.6173 23.5493 18.5571 25.3699 19.2476 27.0134C19.6312 27.9236 20.3815 28.6686 21.3118 29.0298C21.723 29.188 22.18 29.3028 22.6638 29.3694C22.4897 33.2428 22.2921 37.2848 22.1121 39.5342C21.9736 41.227 21.8102 42.9385 21.8322 44.6383C21.8452 45.6539 21.8345 46.8649 22.5011 47.7164C23.1985 48.6061 24.6694 48.1968 25.0666 47.1456C25.512 45.9605 25.3825 44.5796 25.2308 42.4037C25.0785 40.2256 24.907 37.2543 24.8125 35.6557C24.6742 33.3017 24.626 31.2447 24.6127 29.3679C25.8513 29.1909 27.0066 28.6594 27.6532 27.682C27.9368 27.2545 28.1236 26.7768 28.2511 26.2853C28.4468 25.5408 28.5422 24.7253 28.4999 23.9574C28.4569 23.2504 27.8759 17.7453 26.8347 18.1624Z" fill="white"/>
</svg>
