<svg width="17" height="18" viewBox="0 0 17 18" fill="none" xmlns="http://www.w3.org/2000/svg">
<path d="M16.1368 6.05277L11.1377 5.26854L8.903 0.378305C8.84197 0.244413 8.74155 0.136025 8.61751 0.0701416C8.30642 -0.0956291 7.92839 0.0425132 7.77285 0.378305L5.53813 5.26854L0.539058 6.05277C0.401234 6.07402 0.275223 6.14415 0.178747 6.25042C0.0621115 6.37982 -0.00215972 6.5539 5.54169e-05 6.73443C0.00227055 6.91495 0.0707908 7.08714 0.19056 7.21316L3.80745 11.0195L2.95295 16.3943C2.93291 16.5193 2.94572 16.6479 2.98995 16.7655C3.03417 16.8831 3.10802 16.9849 3.20313 17.0595C3.29825 17.134 3.41081 17.1783 3.52806 17.1874C3.64532 17.1964 3.76257 17.1698 3.86652 17.1105L8.33792 14.573L12.8093 17.1105C12.9314 17.1807 13.0732 17.204 13.209 17.1785C13.5516 17.1148 13.782 16.7641 13.7229 16.3943L12.8684 11.0195L16.4853 7.21316C16.5837 7.10902 16.6487 6.97301 16.6684 6.82424C16.7216 6.45232 16.4813 6.10802 16.1368 6.05277Z" fill="#FDBF00"/>
</svg>
