<svg width="17" height="18" viewBox="0 0 17 18" fill="none" xmlns="http://www.w3.org/2000/svg">
<path d="M16.1058 6.05277L11.1163 5.26854L8.88591 0.378305C8.825 0.244413 8.72477 0.136025 8.60097 0.0701416C8.29048 -0.0956291 7.91317 0.0425132 7.75793 0.378305L5.5275 5.26854L0.538023 6.05277C0.400464 6.07402 0.274695 6.14415 0.178403 6.25042C0.0619923 6.37982 -0.00215557 6.5539 5.53105e-05 6.73443C0.00226619 6.91495 0.0706549 7.08714 0.190194 7.21316L3.80015 11.0195L2.94728 16.3943C2.92728 16.5193 2.94007 16.6479 2.98421 16.7655C3.02834 16.8831 3.10205 16.9849 3.19698 17.0595C3.29191 17.134 3.40426 17.1783 3.52129 17.1874C3.63832 17.1964 3.75535 17.1698 3.8591 17.1105L8.32192 14.573L12.7847 17.1105C12.9066 17.1807 13.0481 17.204 13.1837 17.1785C13.5256 17.1148 13.7555 16.7641 13.6966 16.3943L12.8437 11.0195L16.4536 7.21316C16.5519 7.10902 16.6168 6.97301 16.6364 6.82424C16.6895 6.45232 16.4497 6.10802 16.1058 6.05277Z" fill="#FDBF00"/>
</svg>
